# xmcd
# 
# Track frame offsets:
#     150
#     13818
#     26472
#     38684
#     50857
#     65431
#     79208
#     90778
#     104749
#     118400
#     131622
#     145357
#     157892
#     170320
#     184520
#     196613
#     209746
#     223717
#     237647
#     250201
#     263280
#     275686
#     290113
#     303684
#     316363
#     327488
# 
# Disc length: 4575
# 
# Revision: 2
# Processed by: cddbd v1.5.2PL0 Copyright (c) Steve Scherf et al.
# Submitted via: fre:ac v1.0.17
# 
DISCID=8b11dd1a
DTITLE=Count Basie - Les Triomphes du Jazz 2-6
DYEAR=2003
DGENRE=Jazz
TTITLE0=Pennies from heaven
TTITLE1=Swinging at the Daisy chain
TTITLE2=Exactly like you
TTITLE3=Smarty
TTITLE4=Good morning blues
TTITLE5=Time out
TTITLE6=Georgianna
TTITLE7=Blues in the dark
TTITLE8=Stop beatin' round the mulberry bush
TTITLE9=London bridge is fallin' down
TTITLE10=The dirty dozens
TTITLE11=The fives
TTITLE12=Shorty George
TTITLE13=The blues I like to hear
TTITLE14=Do you wanna jump, children ?
TTITLE15=Oh ! Red
TTITLE16=Fare thee honey, fare thee well
TTITLE17=Dupree blues
TTITLE18=When the sun goes down
TTITLE19=Red wagon
TTITLE20=Blame it on my last affair
TTITLE21=Oh ! Lady, be good
TTITLE22=If I could be with you
TTITLE23=Taxi war dance
TTITLE24=Louisiana
TTITLE25=Easy does it
EXTD=
EXTT0=
EXTT1=
EXTT2=
EXTT3=
EXTT4=
EXTT5=
EXTT6=
EXTT7=
EXTT8=
EXTT9=
EXTT10=
EXTT11=
EXTT12=
EXTT13=
EXTT14=
EXTT15=
EXTT16=
EXTT17=
EXTT18=
EXTT19=
EXTT20=
EXTT21=
EXTT22=
EXTT23=
EXTT24=
EXTT25=
PLAYORDER=
